<svg width="252" height="64" viewBox="0 0 252 64" fill="none" xmlns="http://www.w3.org/2000/svg">
<path d="M1.53341e-09 20.807C-0.000128143 34.5692 8.03123 35.6545 13.4311 36.3841C14.9745 36.5927 16.3029 36.7722 17.1673 37.2103C21.1945 39.2515 22.2014 43.3337 22.2014 45.3748V61.7037C22.2014 64.7654 26.2286 64.7654 26.2287 61.7037V61.6986C26.2291 49.9664 26.2292 46.9051 29.7526 43.3337C30.6147 42.4598 32.23 41.8303 34.1194 41.0939C39.9313 38.8289 48.3368 35.553 45.3923 21.0463C45.3734 20.9534 45.2847 20.8813 45.1899 20.8818C29.8796 20.9552 29.4198 31.0459 29.1794 36.3232C29.1145 37.7462 29.0656 38.8192 28.7458 39.2515C27.8387 40.4775 27.01 41.4426 26.5668 41.9409C26.4464 42.0762 26.2287 41.9903 26.2287 41.8092V34.1487C26.2287 31.087 22.2014 31.087 22.2014 34.1487V37.7433C22.2014 37.9222 21.9974 37.9993 21.8886 37.8573C21.3928 37.21 20.4084 35.6969 19.6843 33.1281C19.5605 32.6889 19.4596 32.1109 19.3421 31.4385C18.5074 26.6596 16.8405 17.1171 0.226585 18.8219C0.1287 18.832 0.0473138 18.9187 0.0427479 19.017C0.0139964 19.6363 5.34894e-06 20.2327 1.53341e-09 20.807Z" fill="#FF6E2F"/>
<path d="M24.1056 0.0349449C18.1266 4.19135 12.2547 17.7843 24.0678 30.4202C24.1461 30.504 24.284 30.504 24.3623 30.4202C36.1755 17.7843 30.3036 4.19135 24.3245 0.0349441C24.2575 -0.0116485 24.1726 -0.0116478 24.1056 0.0349449Z" fill="#FF6E2F"/>
<path fill-rule="evenodd" clip-rule="evenodd" d="M54 6.01332V39.5686H63.4992V30.7963H69.3522C72.4226 30.7963 75.0613 30.3009 77.2682 29.3103C79.507 28.2876 81.2342 26.8495 82.4496 24.996C83.6649 23.1425 84.2726 20.9534 84.2726 18.4288C84.2726 15.8722 83.6649 13.6671 82.4496 11.8136C81.2342 9.9281 79.507 8.49001 77.2682 7.49933C75.0613 6.50866 72.4226 6.01332 69.3522 6.01332H54ZM63.4992 23.3182H68.7765C70.7595 23.3182 72.2307 22.8868 73.1903 22.024C74.1818 21.1611 74.6775 19.9627 74.6775 18.4288C74.6775 16.8629 74.1818 15.6485 73.1903 14.7856C72.2307 13.9228 70.7595 13.4913 68.7765 13.4913H63.4992V23.3182Z" fill="#2B2420"/>
<path d="M88.9409 4V39.5686H98.0563V4H88.9409Z" fill="#2B2420"/>
<path fill-rule="evenodd" clip-rule="evenodd" d="M119.86 36.2086V39.5686H128.352V25.1398C128.352 21.0173 127.184 17.9973 124.85 16.0799C122.547 14.1305 119.284 13.1558 115.062 13.1558C113.016 13.1558 110.953 13.4274 108.874 13.9707C106.827 14.482 105.068 15.217 103.596 16.1758L106.667 22.3595C107.562 21.6565 108.65 21.1132 109.929 20.7297C111.208 20.3142 112.472 20.1065 113.719 20.1065C115.638 20.1065 117.029 20.506 117.893 21.3049C118.707 22.0023 119.151 22.977 119.225 24.229H114.055C111.368 24.229 109.177 24.5486 107.482 25.1878C105.787 25.7949 104.524 26.6897 103.692 27.8722C102.893 29.0226 102.493 30.3968 102.493 31.9947C102.493 33.4967 102.861 34.8549 103.596 36.0692C104.364 37.2836 105.467 38.2423 106.907 38.9454C108.346 39.6485 110.105 40 112.184 40C114.455 40 116.278 39.5526 117.653 38.6578C118.598 38.0358 119.333 37.2194 119.86 36.2086ZM119.236 31.2277V28.9747H115.302C113.831 28.9747 112.792 29.2144 112.184 29.6937C111.608 30.1731 111.32 30.8123 111.32 31.6112C111.32 32.4101 111.624 33.0493 112.232 33.5286C112.84 34.008 113.671 34.2477 114.727 34.2477C115.718 34.2477 116.614 34.008 117.413 33.5286C118.245 33.0173 118.853 32.2503 119.236 31.2277Z" fill="#2B2420"/>
<path d="M156.51 14.4021C154.879 13.5712 153.056 13.1558 151.041 13.1558C148.866 13.1558 146.915 13.6352 145.188 14.5939C144.288 15.0764 143.489 15.689 142.789 16.4315V13.5872H134.105V39.5686H143.221V27.0093C143.221 25.5712 143.445 24.4048 143.892 23.51C144.34 22.6152 144.964 21.9601 145.764 21.5446C146.563 21.0972 147.443 20.8735 148.402 20.8735C149.746 20.8735 150.785 21.3049 151.521 22.1678C152.288 22.9987 152.672 24.3409 152.672 26.1944V39.5686H161.787V24.7084C161.787 22.024 161.308 19.8349 160.348 18.1411C159.421 16.4474 158.141 15.2011 156.51 14.4021Z" fill="#2B2420"/>
<path d="M171.348 37.5553C173.203 39.1851 175.794 40 179.12 40C180.336 40 181.503 39.8722 182.623 39.6165C183.742 39.3928 184.686 39.0253 185.453 38.514L183.198 32.1385C182.431 32.6818 181.503 32.9534 180.416 32.9534C179.616 32.9534 178.961 32.6977 178.449 32.1864C177.937 31.6431 177.681 30.9081 177.681 29.9814V21.3529H183.63V14.5459H177.681V7.78695H168.566V14.5459H164.776V21.3529H168.566V30.0772C168.566 33.4008 169.493 35.8935 171.348 37.5553Z" fill="#2B2420"/>
<path fill-rule="evenodd" clip-rule="evenodd" d="M204.848 36.2087V39.5686H213.34V25.1398C213.34 21.0173 212.172 17.9973 209.838 16.0799C207.535 14.1305 204.272 13.1558 200.051 13.1558C198.004 13.1558 195.941 13.4274 193.862 13.9707C191.815 14.482 190.056 15.217 188.584 16.1758L191.655 22.3595C192.55 21.6565 193.638 21.1132 194.917 20.7297C196.197 20.3142 197.46 20.1065 198.707 20.1065C200.626 20.1065 202.018 20.506 202.881 21.3049C203.695 22.0023 204.139 22.977 204.213 24.229H199.043C196.356 24.229 194.166 24.5486 192.47 25.1878C190.775 25.7949 189.512 26.6897 188.68 27.8722C187.881 29.0226 187.481 30.3968 187.481 31.9947C187.481 33.4967 187.849 34.8549 188.584 36.0692C189.352 37.2836 190.455 38.2423 191.895 38.9454C193.334 39.6485 195.093 40 197.172 40C199.443 40 201.266 39.5526 202.641 38.6578C203.586 38.0358 204.321 37.2194 204.848 36.2087ZM204.224 31.2277V28.9747H200.29C198.819 28.9747 197.78 29.2144 197.172 29.6937C196.596 30.1731 196.308 30.8123 196.308 31.6112C196.308 32.4101 196.612 33.0493 197.22 33.5286C197.828 34.008 198.659 34.2477 199.715 34.2477C200.706 34.2477 201.602 34.008 202.401 33.5286C203.233 33.0173 203.841 32.2503 204.224 31.2277Z" fill="#2B2420"/>
<path fill-rule="evenodd" clip-rule="evenodd" d="M224.987 38.2743C227.289 39.4248 229.976 40 233.047 40C235.541 40 237.7 39.6485 239.523 38.9454C241.346 38.2104 242.882 37.1558 244.129 35.7816L239.331 30.7963C238.436 31.5633 237.524 32.1385 236.597 32.522C235.701 32.8735 234.614 33.0493 233.334 33.0493C231.959 33.0493 230.776 32.8096 229.784 32.3302C228.793 31.8189 228.025 31.0999 227.481 30.1731C227.261 29.7742 227.088 29.3428 226.963 28.8788H245.856C245.888 28.5273 245.92 28.1438 245.952 27.7284C245.984 27.3129 246 26.9454 246 26.6258C246 23.7497 245.376 21.3049 244.129 19.2916C242.882 17.2783 241.202 15.7603 239.092 14.7377C236.981 13.6831 234.646 13.1558 232.087 13.1558C229.368 13.1558 226.922 13.731 224.747 14.8815C222.572 16 220.861 17.5819 219.613 19.6272C218.398 21.6405 217.79 23.9414 217.79 26.53C217.79 29.1185 218.414 31.4354 219.661 33.4807C220.941 35.494 222.716 37.0919 224.987 38.2743ZM226.83 24.0852C226.938 23.4713 227.124 22.9121 227.385 22.4075C227.833 21.5127 228.457 20.8256 229.257 20.3462C230.088 19.8668 231.048 19.6272 232.135 19.6272C233.222 19.6272 234.166 19.8668 234.966 20.3462C235.797 20.8256 236.437 21.4967 236.885 22.3595C237.172 22.8772 237.368 23.4525 237.472 24.0852H226.83Z" fill="#2B2420"/>
<path d="M55.9046 57.903C56.7048 58.1637 57.5424 58.294 58.4174 58.294C59.4417 58.294 60.2899 58.1353 60.9621 57.818C61.6343 57.4893 62.1305 57.0587 62.4506 56.526C62.7814 55.982 62.9467 55.3927 62.9467 54.758C62.9467 54.1347 62.824 53.619 62.5786 53.211C62.3439 52.803 62.0291 52.48 61.6343 52.242C61.2502 52.004 60.8181 51.8113 60.3379 51.664C59.8685 51.5167 59.3936 51.3863 58.9135 51.273C58.4334 51.1483 57.9959 51.0237 57.6011 50.899C57.217 50.7743 56.9022 50.6043 56.6568 50.389C56.4221 50.1623 56.3047 49.8677 56.3047 49.505C56.3047 49.199 56.3847 48.927 56.5448 48.689C56.7155 48.451 56.9769 48.2583 57.329 48.111C57.6918 47.9637 58.1613 47.89 58.7374 47.89C59.2283 47.89 59.7404 47.9693 60.2739 48.128C60.8074 48.2753 61.3249 48.5077 61.8264 48.825L62.4826 47.108C61.9918 46.768 61.4156 46.5073 60.7541 46.326C60.0925 46.1447 59.4257 46.054 58.7535 46.054C57.7291 46.054 56.8809 46.2183 56.2087 46.547C55.5471 46.8643 55.051 47.295 54.7202 47.839C54.4001 48.3717 54.2401 48.961 54.2401 49.607C54.2401 50.2417 54.3628 50.763 54.6082 51.171C54.8536 51.579 55.1684 51.9077 55.5525 52.157C55.9473 52.395 56.3794 52.5933 56.8489 52.752C57.329 52.8993 57.8038 53.0297 58.2733 53.143C58.7535 53.2563 59.1856 53.381 59.5697 53.517C59.9645 53.6417 60.2846 53.8173 60.53 54.044C60.7754 54.2593 60.8981 54.5483 60.8981 54.911C60.8981 55.2057 60.8127 55.472 60.642 55.71C60.4713 55.9367 60.2046 56.118 59.8418 56.254C59.479 56.39 59.0042 56.458 58.4174 56.458C57.7238 56.458 57.0463 56.3333 56.3847 56.084C55.7232 55.8347 55.1684 55.523 54.7202 55.149L54 56.866C54.4695 57.2853 55.1043 57.631 55.9046 57.903Z" fill="#A0A0A0"/>
<path d="M66.5143 57.818C67.0692 58.1013 67.7094 58.243 68.4349 58.243C69.0964 58.243 69.7046 58.09 70.2595 57.784C70.6276 57.5734 70.937 57.303 71.1878 56.9727V58.124H73.0923V49.046H71.0917V53.636C71.0917 54.2367 70.9904 54.741 70.7876 55.149C70.5956 55.557 70.3235 55.863 69.9714 56.067C69.6299 56.271 69.2245 56.373 68.755 56.373C68.1148 56.373 67.6187 56.1747 67.2666 55.778C66.9251 55.37 66.7544 54.758 66.7544 53.942V49.046H64.7538V54.231C64.7538 55.1377 64.9085 55.8913 65.2179 56.492C65.5274 57.0813 65.9595 57.5233 66.5143 57.818Z" fill="#A0A0A0"/>
<path fill-rule="evenodd" clip-rule="evenodd" d="M80.9774 57.0224V58.124H82.8659V52.803C82.8659 51.4883 82.5245 50.5193 81.8416 49.896C81.1694 49.2613 80.2145 48.944 78.9768 48.944C78.2939 48.944 77.6323 49.0403 76.9922 49.233C76.3626 49.4143 75.8185 49.692 75.3596 50.066L76.1439 51.613C76.464 51.3297 76.8534 51.1087 77.3122 50.95C77.7817 50.7913 78.2565 50.712 78.7367 50.712C79.4516 50.712 79.9851 50.8877 80.3372 51.239C80.6893 51.579 80.8653 52.0607 80.8653 52.684V52.82H78.6567C77.7924 52.82 77.0989 52.939 76.576 53.177C76.0532 53.415 75.6744 53.738 75.4397 54.146C75.2156 54.554 75.1036 55.013 75.1036 55.523C75.1036 56.0443 75.2316 56.5147 75.4877 56.934C75.7544 57.342 76.1279 57.665 76.608 57.903C77.0882 58.1297 77.6484 58.243 78.2885 58.243C79.0461 58.243 79.6703 58.0957 80.1611 57.801C80.5067 57.598 80.7787 57.3384 80.9774 57.0224ZM80.8653 55.285V54.231H78.8007C78.1178 54.231 77.659 54.35 77.4243 54.588C77.1895 54.8147 77.0722 55.098 77.0722 55.438C77.0722 55.8233 77.2162 56.1293 77.5043 56.356C77.7924 56.5827 78.1925 56.696 78.7047 56.696C79.1955 56.696 79.633 56.577 80.0171 56.339C80.4119 56.101 80.6946 55.7497 80.8653 55.285Z" fill="#A0A0A0"/>
<path fill-rule="evenodd" clip-rule="evenodd" d="M92.6896 57.733C93.2657 58.073 93.9006 58.243 94.5942 58.243C95.4371 58.243 96.1786 58.0503 96.8188 57.665C97.4697 57.2797 97.9819 56.7413 98.3553 56.05C98.7394 55.3473 98.9315 54.5257 98.9315 53.585C98.9315 52.6443 98.7394 51.8283 98.3553 51.137C97.9819 50.4457 97.4697 49.9073 96.8188 49.522C96.1786 49.1367 95.4371 48.944 94.5942 48.944C93.8686 48.944 93.2231 49.114 92.6576 49.454C92.316 49.6525 92.0172 49.9151 91.7613 50.2418V49.046H89.8567V61.422H91.8573V57.0167C92.1008 57.307 92.3782 57.5458 92.6896 57.733ZM95.6505 56.084C95.277 56.3107 94.8502 56.424 94.3701 56.424C93.8899 56.424 93.4578 56.3107 93.0737 56.084C92.6896 55.8573 92.3855 55.5287 92.1614 55.098C91.9373 54.6673 91.8253 54.163 91.8253 53.585C91.8253 52.9957 91.9373 52.4913 92.1614 52.072C92.3855 51.6413 92.6896 51.3127 93.0737 51.086C93.4578 50.8593 93.8899 50.746 94.3701 50.746C94.8502 50.746 95.277 50.8593 95.6505 51.086C96.0346 51.3127 96.3387 51.6413 96.5628 52.072C96.7868 52.4913 96.8989 52.9957 96.8989 53.585C96.8989 54.163 96.7868 54.6673 96.5628 55.098C96.3387 55.5287 96.0346 55.8573 95.6505 56.084Z" fill="#A0A0A0"/>
<path d="M100.829 45.51V58.124H102.829V45.51H100.829Z" fill="#A0A0A0"/>
<path fill-rule="evenodd" clip-rule="evenodd" d="M110.721 57.0224V58.124H112.609V52.803C112.609 51.4883 112.268 50.5193 111.585 49.896C110.913 49.2613 109.958 48.944 108.72 48.944C108.037 48.944 107.376 49.0403 106.736 49.233C106.106 49.4143 105.562 49.692 105.103 50.066L105.887 51.613C106.207 51.3297 106.597 51.1087 107.056 50.95C107.525 50.7913 108 50.712 108.48 50.712C109.195 50.712 109.729 50.8877 110.081 51.239C110.433 51.579 110.609 52.0607 110.609 52.684V52.82H108.4C107.536 52.82 106.842 52.939 106.319 53.177C105.797 53.415 105.418 53.738 105.183 54.146C104.959 54.554 104.847 55.013 104.847 55.523C104.847 56.0443 104.975 56.5147 105.231 56.934C105.498 57.342 105.871 57.665 106.351 57.903C106.832 58.1297 107.392 58.243 108.032 58.243C108.79 58.243 109.414 58.0957 109.905 57.801C110.25 57.598 110.522 57.3384 110.721 57.0224ZM110.609 55.285V54.231H108.544C107.861 54.231 107.402 54.35 107.168 54.588C106.933 54.8147 106.816 55.098 106.816 55.438C106.816 55.8233 106.96 56.1293 107.248 56.356C107.536 56.5827 107.936 56.696 108.448 56.696C108.939 56.696 109.376 56.577 109.761 56.339C110.155 56.101 110.438 55.7497 110.609 55.285Z" fill="#A0A0A0"/>
<path d="M121.851 49.369C121.317 49.0857 120.709 48.944 120.026 48.944C119.28 48.944 118.618 49.1027 118.042 49.42C117.661 49.6259 117.341 49.8933 117.082 50.2223V49.046H115.177V58.124H117.178V53.534C117.178 52.922 117.274 52.4177 117.466 52.021C117.668 51.613 117.951 51.307 118.314 51.103C118.677 50.899 119.093 50.797 119.562 50.797C120.202 50.797 120.699 50.9953 121.051 51.392C121.414 51.7887 121.595 52.3893 121.595 53.194V58.124H123.596V52.922C123.596 52.004 123.441 51.256 123.131 50.678C122.822 50.0887 122.395 49.6523 121.851 49.369Z" fill="#A0A0A0"/>
<path d="M127.174 57.478C127.686 57.988 128.411 58.243 129.35 58.243C129.713 58.243 130.065 58.192 130.407 58.09C130.748 57.988 131.036 57.835 131.271 57.631L130.711 56.118C130.412 56.3673 130.039 56.492 129.59 56.492C129.217 56.492 128.924 56.373 128.71 56.135C128.507 55.897 128.406 55.5627 128.406 55.132V50.814H130.695V49.114H128.406V47.04H126.406V49.114H124.997V50.814H126.406V55.183C126.406 56.1917 126.662 56.9567 127.174 57.478Z" fill="#A0A0A0"/>
<path fill-rule="evenodd" clip-rule="evenodd" d="M138.182 57.0224V58.124H140.071V52.803C140.071 51.4883 139.729 50.5193 139.047 49.896C138.374 49.2613 137.419 48.944 136.182 48.944C135.499 48.944 134.837 49.0403 134.197 49.233C133.568 49.4143 133.023 49.692 132.565 50.066L133.349 51.613C133.669 51.3297 134.058 51.1087 134.517 50.95C134.987 50.7913 135.462 50.712 135.942 50.712C136.657 50.712 137.19 50.8877 137.542 51.239C137.894 51.579 138.07 52.0607 138.07 52.684V52.82H135.862C134.997 52.82 134.304 52.939 133.781 53.177C133.258 53.415 132.879 53.738 132.645 54.146C132.421 54.554 132.309 55.013 132.309 55.523C132.309 56.0443 132.437 56.5147 132.693 56.934C132.959 57.342 133.333 57.665 133.813 57.903C134.293 58.1297 134.853 58.243 135.494 58.243C136.251 58.243 136.875 58.0957 137.366 57.801C137.712 57.598 137.984 57.3384 138.182 57.0224ZM138.07 55.285V54.231H136.006C135.323 54.231 134.864 54.35 134.629 54.588C134.395 54.8147 134.277 55.098 134.277 55.438C134.277 55.8233 134.421 56.1293 134.709 56.356C134.997 56.5827 135.398 56.696 135.91 56.696C136.4 56.696 136.838 56.577 137.222 56.339C137.617 56.101 137.9 55.7497 138.07 55.285Z" fill="#A0A0A0"/>
<path d="M145.624 58.1623C145.102 58.07 144.619 57.8985 144.175 57.648C143.481 57.24 142.937 56.6847 142.542 55.982C142.147 55.2793 141.95 54.4803 141.95 53.585C141.95 52.6783 142.147 51.8793 142.542 51.188C142.937 50.4853 143.481 49.9357 144.175 49.539C144.879 49.1423 145.679 48.944 146.575 48.944C147.408 48.944 148.138 49.1253 148.768 49.488C149.408 49.8393 149.894 50.3607 150.224 51.052L148.688 52.004C148.432 51.5733 148.117 51.256 147.744 51.052C147.381 50.848 146.986 50.746 146.559 50.746C146.068 50.746 145.626 50.8593 145.231 51.086C144.836 51.3127 144.527 51.6413 144.303 52.072C144.079 52.4913 143.966 52.9957 143.966 53.585C143.966 54.1743 144.079 54.6843 144.303 55.115C144.527 55.5343 144.836 55.8573 145.231 56.084C145.626 56.3107 146.068 56.424 146.559 56.424C146.986 56.424 147.381 56.322 147.744 56.118C148.117 55.914 148.432 55.5967 148.688 55.166L150.224 56.118C149.894 56.798 149.408 57.325 148.768 57.699C148.169 58.0441 147.478 58.225 146.696 58.2417L146.527 58.957C146.997 59.0137 147.344 59.1723 147.568 59.433C147.802 59.705 147.92 60.0223 147.92 60.385C147.92 60.8837 147.722 61.2747 147.328 61.558C146.933 61.8527 146.405 62 145.743 62C145.455 62 145.188 61.966 144.943 61.898C144.697 61.8413 144.473 61.7563 144.271 61.643L144.639 60.64C144.809 60.7307 144.98 60.7987 145.151 60.844C145.332 60.8893 145.524 60.912 145.727 60.912C146.036 60.912 146.255 60.8553 146.383 60.742C146.511 60.6287 146.575 60.4813 146.575 60.3C146.575 60.13 146.506 59.994 146.367 59.892C146.239 59.79 146.026 59.739 145.727 59.739H145.231L145.624 58.1623Z" fill="#A0A0A0"/>
<path fill-rule="evenodd" clip-rule="evenodd" d="M157.219 57.0224V58.124H159.108V52.803C159.108 51.4883 158.767 50.5193 158.084 49.896C157.411 49.2613 156.457 48.944 155.219 48.944C154.536 48.944 153.874 49.0403 153.234 49.233C152.605 49.4143 152.061 49.692 151.602 50.066L152.386 51.613C152.706 51.3297 153.095 51.1087 153.554 50.95C154.024 50.7913 154.499 50.712 154.979 50.712C155.694 50.712 156.227 50.8877 156.579 51.239C156.931 51.579 157.107 52.0607 157.107 52.684V52.82H154.899C154.034 52.82 153.341 52.939 152.818 53.177C152.295 53.415 151.916 53.738 151.682 54.146C151.458 54.554 151.346 55.013 151.346 55.523C151.346 56.0443 151.474 56.5147 151.73 56.934C151.996 57.342 152.37 57.665 152.85 57.903C153.33 58.1297 153.89 58.243 154.531 58.243C155.288 58.243 155.912 58.0957 156.403 57.801C156.749 57.598 157.021 57.3384 157.219 57.0224ZM157.107 55.285V54.231H155.043C154.36 54.231 153.901 54.35 153.666 54.588C153.432 54.8147 153.314 55.098 153.314 55.438C153.314 55.8233 153.458 56.1293 153.746 56.356C154.034 56.5827 154.435 56.696 154.947 56.696C155.438 56.696 155.875 56.577 156.259 56.339C156.654 56.101 156.937 55.7497 157.107 55.285Z" fill="#A0A0A0"/>
<path d="M155.843 47.652C156.056 47.754 156.291 47.805 156.547 47.805C157.07 47.805 157.486 47.601 157.796 47.193C158.105 46.7737 158.265 46.2353 158.276 45.578H157.203C157.193 45.884 157.113 46.122 156.963 46.292C156.825 46.462 156.643 46.547 156.419 46.547C156.28 46.547 156.136 46.4903 155.987 46.377C155.838 46.2637 155.678 46.1333 155.507 45.986C155.347 45.8387 155.16 45.7083 154.947 45.595C154.733 45.4817 154.499 45.425 154.243 45.425C153.72 45.425 153.304 45.629 152.994 46.037C152.695 46.445 152.535 47.0003 152.514 47.703H153.586C153.608 47.3857 153.688 47.1363 153.826 46.955C153.965 46.7737 154.146 46.683 154.371 46.683C154.52 46.683 154.669 46.7397 154.819 46.853C154.968 46.9663 155.123 47.1023 155.283 47.261C155.454 47.4083 155.64 47.5387 155.843 47.652Z" fill="#A0A0A0"/>
<path fill-rule="evenodd" clip-rule="evenodd" d="M163.196 57.648C163.878 58.0447 164.657 58.243 165.532 58.243C166.418 58.243 167.202 58.0447 167.885 57.648C168.579 57.24 169.117 56.6847 169.502 55.982C169.896 55.2793 170.094 54.4803 170.094 53.585C170.094 52.667 169.896 51.8623 169.502 51.171C169.117 50.4797 168.579 49.9357 167.885 49.539C167.202 49.1423 166.418 48.944 165.532 48.944C164.657 48.944 163.878 49.1423 163.196 49.539C162.513 49.9357 161.974 50.4853 161.579 51.188C161.184 51.8793 160.987 52.6783 160.987 53.585C160.987 54.4803 161.184 55.2793 161.579 55.982C161.974 56.6847 162.513 57.24 163.196 57.648ZM166.845 56.084C166.461 56.3107 166.023 56.424 165.532 56.424C165.052 56.424 164.62 56.3107 164.236 56.084C163.862 55.8573 163.564 55.5287 163.34 55.098C163.116 54.6673 163.004 54.163 163.004 53.585C163.004 52.9957 163.116 52.4913 163.34 52.072C163.564 51.6413 163.862 51.3127 164.236 51.086C164.62 50.8593 165.058 50.746 165.548 50.746C166.028 50.746 166.461 50.8593 166.845 51.086C167.229 51.3127 167.528 51.6413 167.741 52.072C167.965 52.4913 168.077 52.9957 168.077 53.585C168.077 54.163 167.965 54.6673 167.741 55.098C167.528 55.5287 167.229 55.8573 166.845 56.084Z" fill="#A0A0A0"/>
<path d="M183.104 49.369C182.571 49.0857 181.962 48.944 181.28 48.944C180.533 48.944 179.871 49.1027 179.295 49.42C178.914 49.6259 178.594 49.8933 178.335 50.2223V49.046H176.43V58.124H178.431V53.534C178.431 52.922 178.527 52.4177 178.719 52.021C178.921 51.613 179.204 51.307 179.567 51.103C179.93 50.899 180.346 50.797 180.815 50.797C181.456 50.797 181.952 50.9953 182.304 51.392C182.667 51.7887 182.848 52.3893 182.848 53.194V58.124H184.849V52.922C184.849 52.004 184.694 51.256 184.384 50.678C184.075 50.0887 183.648 49.6523 183.104 49.369Z" fill="#A0A0A0"/>
<path fill-rule="evenodd" clip-rule="evenodd" d="M188.907 57.648C189.589 58.0447 190.368 58.243 191.243 58.243C192.129 58.243 192.913 58.0447 193.596 57.648C194.29 57.24 194.828 56.6847 195.213 55.982C195.607 55.2793 195.805 54.4803 195.805 53.585C195.805 52.667 195.607 51.8623 195.213 51.171C194.828 50.4797 194.29 49.9357 193.596 49.539C192.913 49.1423 192.129 48.944 191.243 48.944C190.368 48.944 189.589 49.1423 188.907 49.539C188.224 49.9357 187.685 50.4853 187.29 51.188C186.895 51.8793 186.698 52.6783 186.698 53.585C186.698 54.4803 186.895 55.2793 187.29 55.982C187.685 56.6847 188.224 57.24 188.907 57.648ZM192.556 56.084C192.172 56.3107 191.734 56.424 191.243 56.424C190.763 56.424 190.331 56.3107 189.947 56.084C189.573 55.8573 189.275 55.5287 189.051 55.098C188.827 54.6673 188.715 54.163 188.715 53.585C188.715 52.9957 188.827 52.4913 189.051 52.072C189.275 51.6413 189.573 51.3127 189.947 51.086C190.331 50.8593 190.769 50.746 191.259 50.746C191.739 50.746 192.172 50.8593 192.556 51.086C192.94 51.3127 193.239 51.6413 193.452 52.072C193.676 52.4913 193.788 52.9957 193.788 53.585C193.788 54.163 193.676 54.6673 193.452 55.098C193.239 55.5287 192.94 55.8573 192.556 56.084Z" fill="#A0A0A0"/>
<path fill-rule="evenodd" clip-rule="evenodd" d="M203.533 57.665C204.195 58.0503 204.937 58.243 205.758 58.243C206.494 58.243 207.145 58.073 207.711 57.733C208.048 57.5304 208.341 57.2674 208.591 56.9441V58.124H210.496V45.51H208.511V50.1625C208.27 49.8724 207.992 49.6362 207.679 49.454C207.113 49.114 206.473 48.944 205.758 48.944C204.937 48.944 204.195 49.1367 203.533 49.522C202.883 49.9073 202.37 50.4457 201.997 51.137C201.624 51.8283 201.437 52.6443 201.437 53.585C201.437 54.5257 201.624 55.3417 201.997 56.033C202.37 56.7243 202.883 57.2683 203.533 57.665ZM207.279 56.084C206.905 56.3107 206.478 56.424 205.998 56.424C205.518 56.424 205.086 56.3107 204.702 56.084C204.328 55.8573 204.024 55.5287 203.79 55.098C203.565 54.6673 203.453 54.163 203.453 53.585C203.453 52.9957 203.565 52.4913 203.79 52.072C204.024 51.6413 204.328 51.3127 204.702 51.086C205.086 50.8593 205.518 50.746 205.998 50.746C206.478 50.746 206.905 50.8593 207.279 51.086C207.663 51.3127 207.967 51.6413 208.191 52.072C208.426 52.4913 208.543 52.9957 208.543 53.585C208.543 54.163 208.426 54.6673 208.191 55.098C207.967 55.5287 207.663 55.8573 207.279 56.084Z" fill="#A0A0A0"/>
<path d="M215.129 49.046H213.129V58.124H215.129V49.046Z" fill="#A0A0A0"/>
<path d="M213.209 47.176C213.454 47.4253 213.764 47.55 214.137 47.55C214.521 47.55 214.831 47.4253 215.065 47.176C215.3 46.9153 215.417 46.598 215.417 46.224C215.417 45.8727 215.295 45.5837 215.049 45.357C214.815 45.119 214.511 45 214.137 45C213.764 45 213.454 45.1247 213.209 45.374C212.974 45.612 212.857 45.9123 212.857 46.275C212.857 46.6263 212.974 46.9267 213.209 47.176Z" fill="#A0A0A0"/>
<path fill-rule="evenodd" clip-rule="evenodd" d="M219.308 61.201C220.065 61.4277 220.839 61.541 221.628 61.541C223.122 61.541 224.264 61.15 225.053 60.368C225.843 59.5973 226.238 58.3903 226.238 56.747V49.046H224.333V50.2576C224.051 49.8949 223.715 49.61 223.325 49.403C222.749 49.097 222.098 48.944 221.372 48.944C220.561 48.944 219.825 49.1253 219.164 49.488C218.513 49.8507 217.995 50.3607 217.611 51.018C217.238 51.6753 217.051 52.4403 217.051 53.313C217.051 54.197 217.238 54.9677 217.611 55.625C217.995 56.2823 218.513 56.798 219.164 57.172C219.825 57.5347 220.561 57.716 221.372 57.716C222.098 57.716 222.749 57.563 223.325 57.257C223.671 57.0661 223.976 56.8158 224.237 56.506V56.985C224.237 57.903 224.018 58.5887 223.581 59.042C223.143 59.5067 222.455 59.739 221.516 59.739C220.929 59.739 220.348 59.637 219.772 59.433C219.206 59.2403 218.737 58.9797 218.363 58.651L217.467 60.249C217.947 60.6683 218.561 60.9857 219.308 61.201ZM223.021 55.591C222.626 55.8063 222.178 55.914 221.676 55.914C221.175 55.914 220.721 55.8063 220.316 55.591C219.921 55.3643 219.612 55.0583 219.388 54.673C219.174 54.2763 219.068 53.823 219.068 53.313C219.068 52.803 219.174 52.3553 219.388 51.97C219.612 51.5733 219.921 51.273 220.316 51.069C220.721 50.8537 221.175 50.746 221.676 50.746C222.178 50.746 222.626 50.8537 223.021 51.069C223.416 51.273 223.72 51.5733 223.933 51.97C224.157 52.3553 224.269 52.803 224.269 53.313C224.269 53.823 224.157 54.2763 223.933 54.673C223.72 55.0583 223.416 55.3643 223.021 55.591Z" fill="#A0A0A0"/>
<path d="M230.869 49.046H228.868V58.124H230.869V49.046Z" fill="#A0A0A0"/>
<path d="M228.948 47.176C229.193 47.4253 229.503 47.55 229.876 47.55C230.26 47.55 230.57 47.4253 230.805 47.176C231.039 46.9153 231.157 46.598 231.157 46.224C231.157 45.8727 231.034 45.5837 230.789 45.357C230.554 45.119 230.25 45 229.876 45C229.503 45 229.193 45.1247 228.948 45.374C228.713 45.612 228.596 45.9123 228.596 46.275C228.596 46.6263 228.713 46.9267 228.948 47.176Z" fill="#A0A0A0"/>
<path d="M234.535 57.478C235.047 57.988 235.772 58.243 236.711 58.243C237.074 58.243 237.426 58.192 237.768 58.09C238.109 57.988 238.397 57.835 238.632 57.631L238.072 56.118C237.773 56.3673 237.4 56.492 236.951 56.492C236.578 56.492 236.285 56.373 236.071 56.135C235.868 55.897 235.767 55.5627 235.767 55.132V50.814H238.056V49.114H235.767V47.04H233.766V49.114H232.358V50.814H233.766V55.183C233.766 56.1917 234.023 56.9567 234.535 57.478Z" fill="#A0A0A0"/>
<path fill-rule="evenodd" clip-rule="evenodd" d="M245.543 57.0224V58.124H247.432V52.803C247.432 51.4883 247.09 50.5193 246.408 49.896C245.735 49.2613 244.78 48.944 243.543 48.944C242.86 48.944 242.198 49.0403 241.558 49.233C240.929 49.4143 240.384 49.692 239.926 50.066L240.71 51.613C241.03 51.3297 241.419 51.1087 241.878 50.95C242.348 50.7913 242.822 50.712 243.303 50.712C244.017 50.712 244.551 50.8877 244.903 51.239C245.255 51.579 245.431 52.0607 245.431 52.684V52.82H243.223C242.358 52.82 241.665 52.939 241.142 53.177C240.619 53.415 240.24 53.738 240.006 54.146C239.782 54.554 239.669 55.013 239.669 55.523C239.669 56.0443 239.798 56.5147 240.054 56.934C240.32 57.342 240.694 57.665 241.174 57.903C241.654 58.1297 242.214 58.243 242.854 58.243C243.612 58.243 244.236 58.0957 244.727 57.801C245.073 57.598 245.345 57.3384 245.543 57.0224ZM245.431 55.285V54.231H243.367C242.684 54.231 242.225 54.35 241.99 54.588C241.755 54.8147 241.638 55.098 241.638 55.438C241.638 55.8233 241.782 56.1293 242.07 56.356C242.358 56.5827 242.758 56.696 243.271 56.696C243.761 56.696 244.199 56.577 244.583 56.339C244.978 56.101 245.261 55.7497 245.431 55.285Z" fill="#A0A0A0"/>
<path d="M249.999 45.51V58.124H252V45.51H249.999Z" fill="#A0A0A0"/>
</svg>
